<svg width="70" height="50" viewBox="0 0 70 50" fill="none" xmlns="http://www.w3.org/2000/svg">
<g clip-path="url(#clip0_93_256)">
<path d="M6.09899 7.97438H25.1571C24.1859 9.56926 23.2864 11.2334 22.3844 12.8282C20.0268 16.9898 17.6026 21.0796 15.245 25.1719C14.0662 27.2514 12.8183 29.3334 11.5728 31.3437H22.6612C22.3844 32.036 19.8192 37.377 19.4733 37.7232H0C0.971193 35.9206 2.1475 34.118 3.25708 32.3129L10.6732 19.9693C11.7136 18.236 12.8899 16.5026 13.7919 14.7693H2.9803C3.32627 13.7975 3.8131 12.8975 4.29747 11.9257C4.92021 10.6078 5.54544 9.22061 6.16818 7.90268L6.09899 7.97191V7.97438Z" fill="#FD7751"/>
<path d="M29.8722 8.11285H32.3681V37.7924C28.9035 37.7232 25.3672 37.7232 21.9025 37.7924C23.0121 35.3642 24.3984 33.0078 25.6439 30.6488L28.8318 24.6847C29.6646 23.0899 30.5642 21.4257 31.5353 19.9001C29.803 20.5232 28.0707 21.2873 26.3384 21.9796C24.8136 22.6027 23.2197 23.2283 21.6949 23.9207C22.4561 22.2566 23.3581 20.7309 24.1909 19.136C26.1308 15.5309 28.0015 11.854 29.8055 8.17961L29.8747 8.11038L29.8722 8.11285Z" fill="#FD7751"/>
<path d="M24.05 0H30.149C29.9414 0.623115 29.6646 1.17947 29.3878 1.73335C28.7651 3.18975 28.2091 4.57692 27.5863 5.9641C27.5863 6.10257 27.5171 6.1718 27.4479 6.31027C26.8252 6.37951 26.1308 6.31027 25.4388 6.31027H21.7666C21.9742 5.61792 22.2509 4.9231 22.4585 4.23075L23.9808 0H24.05Z" fill="#E94E3C"/>
<path d="M23.5632 39.182H29.3162C26.6127 41.9564 23.6324 44.5205 20.7904 47.1564C19.7501 48.1282 18.7121 49.0282 17.6718 50C19.6809 46.3948 21.6232 42.7872 23.5632 39.182Z" fill="#F75E3C"/>
<path d="M49.0687 8.04362H56.6232C58.148 8.04362 59.8111 7.97438 61.4051 8.18209C61.5435 8.18209 61.751 8.18209 61.8894 8.25132C62.0278 8.32056 62.2354 8.32056 62.3738 8.38979C62.5122 8.38979 62.6506 8.45903 62.8581 8.52826C62.9965 8.52826 63.1349 8.5975 63.3425 8.66673C63.4809 8.66673 63.6193 8.8052 63.7577 8.8052C63.8961 8.8052 64.0344 8.94367 64.1728 9.01291L64.588 9.22061L65.0032 9.42832C67.4991 10.8847 69.2314 13.2412 69.9926 16.0155V21.495C69.9926 21.5873 69.9695 21.6796 69.9234 21.7719C69.8542 21.9104 69.9234 21.9104 69.8542 22.0489C69.785 22.1873 69.8542 22.1873 69.785 22.3258C69.785 22.395 69.785 22.4643 69.7158 22.6027C69.7158 22.672 69.7158 22.7412 69.6466 22.8797C69.6466 22.9489 69.6466 23.0181 69.5774 23.1566C69.5774 23.2259 69.5082 23.2951 69.5082 23.4336C69.5082 23.5028 69.439 23.572 69.3698 23.7105C69.3698 23.7797 69.3006 23.849 69.2314 23.9182C69.1622 23.9874 69.1622 24.0567 69.0931 24.1259C69.0239 24.1951 69.0239 24.2644 68.9547 24.3336C68.9547 24.4028 68.8855 24.4721 68.8163 24.5413C67.2223 27.1772 64.7956 28.9105 61.8153 29.6029C60.4981 29.8798 59.181 29.8106 57.8638 29.8106H54.2607V38.0619H49.1329V8.32056L49.0638 8.04362H49.0687Z" fill="#FD7751"/>
<path d="M54.1965 13.1769H57.7995C60.0162 13.1769 61.6818 13.0384 63.4142 14.7025L63.6218 14.9102C63.6218 14.9795 63.7602 15.0487 63.7602 15.1179C63.7602 15.1872 63.8985 15.2564 63.8985 15.3257C63.8985 15.3949 63.9677 15.4641 64.0369 15.5334C64.0369 15.6026 64.1061 15.6718 64.1753 15.7411C64.1753 15.8103 64.2445 15.8795 64.3137 15.9488C64.3137 16.018 64.3829 16.0872 64.4521 16.2257C64.4521 16.2949 64.5213 16.3642 64.5905 16.5026C64.5905 16.5719 64.6597 16.6411 64.6597 16.7796C64.6597 16.8488 64.6597 16.9181 64.7289 17.0565C64.7289 17.1258 64.7289 17.195 64.7981 17.3335V18.7206C64.7981 20.2463 64.1753 21.7027 63.0657 22.7437C61.195 24.477 59.6703 24.3386 57.3127 24.3386H53.8481V13.2437L54.194 13.1744L54.1965 13.1769Z" fill="#FDFDFD"/>
<path d="M45.604 11.7205C46.4368 11.7205 47.2672 11.7897 48.0308 12.0667V15.6026C47.408 15.1179 46.7136 14.8385 45.9525 14.8385C45.1913 14.8385 44.2893 15.1847 43.6666 15.7411C43.3898 16.018 42.9746 16.5051 42.8338 16.9205C42.6954 17.3359 42.8338 19.3487 42.8338 19.9026H42.2802C42.1418 20.041 42.0034 20.1795 41.8651 20.318H42.8363V22.8846C44.6378 22.8154 46.4393 22.4692 48.1024 21.6359V25.659C46.7161 26.423 45.2605 26.7692 43.6666 26.8384C43.459 26.8384 43.1822 26.9077 42.9054 26.8384C42.8363 26.8384 42.7671 26.8384 42.7671 26.7C42.7671 26.6307 42.7671 26.7 42.6287 26.6307C42.2827 26.7692 42.0059 27.0461 41.7267 27.3231H42.6979V30.3051H42.2827C42.1443 30.4436 41.9367 30.6513 41.7983 30.859H42.7003V33.7026H42.4927C42.216 33.7026 42.0776 34.118 41.87 34.3257H42.772V37.5155H39.4457C40.2069 37.1693 41.1089 36.5437 41.7316 36.059V35.3667C41.1089 35.6436 39.7225 36.2 39.3741 36.8231C39.2357 37.0308 39.3049 37.3077 39.0973 37.5155V20.7334C39.0973 19.6924 39.0281 18.1668 39.1665 17.1975C39.4433 15.8103 40.0685 14.6308 40.968 13.5923C42.216 12.2051 43.8791 11.6513 45.7498 11.5128L45.6114 11.7205H45.604Z" fill="#F75E3C"/>
<path d="M41.5833 31.9692V32.6616C40.8222 33.2847 39.851 33.7718 39.0874 34.3949C39.0874 34.2565 39.0874 33.9103 39.1566 33.7718C39.1566 33.5641 39.295 33.3564 39.5026 33.2179C39.9177 32.8025 41.0273 32.3154 41.5809 31.9692H41.5833Z" fill="#FDFDFD"/>
<path d="M41.6525 21.4282V22.1206C40.9606 22.7437 39.9202 23.1616 39.0874 23.7154C39.0874 23.577 39.0874 23.3693 39.1566 23.1616C39.5026 22.259 40.7505 21.7744 41.5833 21.4282H41.6525Z" fill="#FDFDFD"/>
<path d="M41.5833 28.4333C41.6525 28.641 41.5833 28.918 41.5833 29.1257C41.099 29.4026 40.6122 29.7488 40.197 30.0282C39.851 30.2359 39.4358 30.4436 39.0874 30.7205C39.0874 30.5128 39.0874 30.2359 39.1566 30.0282C39.4334 29.2641 40.8197 28.7102 41.5141 28.3641L41.5833 28.4333Z" fill="#FDFDFD"/>
<path d="M41.5833 24.8949V25.5873C40.7505 26.1411 39.851 26.559 39.0874 27.1821C39.0874 26.9744 39.0874 26.6975 39.1566 26.4898C39.5026 25.7257 40.8197 25.2411 41.5141 24.8949H41.5833Z" fill="#FDFDFD"/>
<path d="M41.6525 18.2385C41.7217 18.4462 41.6525 18.7231 41.6525 18.9308C40.8914 19.5539 39.9202 19.7641 39.1566 20.3872V19.9026C39.2258 19.6949 39.295 19.4872 39.4334 19.3487C39.8485 18.9333 40.9581 18.5154 41.5117 18.2385H41.6501H41.6525Z" fill="#FDFDFD"/>
<path d="M46.7828 23.3693C46.7828 23.7847 46.4368 24.8949 46.2293 25.2411C46.0217 25.5873 45.4681 25.6565 45.1197 25.7257C45.1197 25.518 45.2581 25.3103 45.3965 25.1026C45.604 24.5487 45.8116 24.0616 46.0884 23.577C46.296 23.577 46.5036 23.4385 46.7803 23.3693H46.7828Z" fill="#FDFDFD"/>
<path d="M42.5545 15.9488C42.5545 16.018 42.5545 16.0872 42.4853 16.1565C42.4162 16.2949 42.2778 16.3642 42.1394 16.3642C41.8626 16.4334 41.5166 16.5026 41.2374 16.5026C40.6146 16.5719 40.0586 16.6411 39.4359 16.7796C39.4359 16.5719 39.5742 16.4334 39.6434 16.2949C39.7126 16.1565 39.9202 16.0872 40.0586 16.0872C40.543 15.9488 41.9293 16.018 42.5545 15.9488Z" fill="#FDFDFD"/>
<path d="M41.9985 13.1077C42.3445 13.2461 42.6905 13.5923 43.0389 13.8C43.3873 14.0077 43.7308 14.2154 44.0793 14.4231C43.8717 14.4924 43.6641 14.6308 43.3873 14.7001C43.1798 14.7001 41.655 13.7283 41.3782 13.5898C41.5858 13.4514 41.7934 13.2437 42.001 13.1744V13.1052L41.9985 13.1077Z" fill="#FDFDFD"/>
<path d="M43.2465 23.9949H43.8C43.5233 24.6872 43.4541 25.382 43.3157 26.0744H42.8313V24.2718C42.9697 24.1333 43.1773 24.0641 43.3157 23.9949H43.2465Z" fill="#FDFDFD"/>
<path d="M44.702 11.9282H45.1864C45.2556 11.9282 45.3248 11.9974 45.394 12.0667C45.4632 12.2051 46.5728 13.8692 46.5728 13.9385H45.95C45.7424 13.6615 44.7712 12.2051 44.6328 11.9282H44.702Z" fill="#FDFDFD"/>
<path d="M42.4853 23.1616C42.5545 23.1616 42.6237 23.1616 42.6929 23.2308V23.7154H41.9318C42.0702 23.4385 42.2778 23.3 42.4853 23.1616Z" fill="#FDFDFD"/>
<path d="M44.9096 8.38979C44.9096 8.32056 44.8404 8.25132 44.7712 8.11285C45.7424 7.83591 46.9879 7.90515 48.0283 7.90515V11.3718C47.9591 11.3718 47.8207 11.3718 47.7515 11.3026C45.6732 10.8872 43.4541 11.0949 41.6525 12.3436C40.197 13.3154 38.8798 15.3256 38.3955 17.059C38.1879 17.8231 38.2571 18.6539 38.2571 19.4179V37.6564H38.1187C38.0495 37.5179 38.0495 37.3795 37.9803 37.241C37.7035 36.5486 36.248 35.923 35.6228 35.5769V36.4794C36.1071 36.7563 36.5939 37.0333 37.0783 37.3127C37.2167 37.3819 37.4243 37.5204 37.6319 37.5896C37.678 37.5896 37.7241 37.6358 37.7702 37.7281H34.5824V34.5383H35.5536C35.4152 34.3999 35.346 34.2614 35.2076 34.1229C35.0692 33.9845 35 33.9152 34.8616 33.9152H34.7232C34.5848 33.7768 34.7232 31.4178 34.7232 31.0717H35.6252C35.556 30.9332 35.4868 30.7947 35.3484 30.7255C35.1409 30.5178 35.0025 30.4485 34.7257 30.4485V27.328C35.0025 27.328 35.3484 27.328 35.6277 27.3973C35.6277 27.3973 35.6277 27.328 35.5585 27.2588C35.3509 26.9126 35.1433 26.7049 34.7974 26.5664V23.5844H35.6994C35.4226 23.2382 35.215 23.0305 34.7974 22.8203V19.9075H35.6994C35.561 19.6306 35.2842 19.2152 35.0074 19.1435C34.9613 19.1435 34.9152 19.1204 34.869 19.0742C34.7306 18.3819 35.1458 16.5768 35.2842 15.8845C35.561 15.8845 35.8377 16.0229 36.117 16.1614V15.6075C35.9786 15.4691 35.771 15.3306 35.5634 15.2614C35.9786 14.1511 36.5346 13.1818 37.1574 12.1408C37.365 12.2793 37.5726 12.4178 37.7801 12.5563L37.9877 12.0716C37.9185 11.9331 37.7801 11.7254 37.6417 11.587C38.1261 10.8946 39.4433 9.85362 40.2069 9.43821C40.3453 9.57668 40.4837 9.71515 40.622 9.92285C40.7604 9.85362 40.8988 9.78438 40.968 9.64591V9.16127C41.87 8.60739 43.0463 8.1895 44.0867 7.9818H44.1559C44.2251 8.12027 44.1559 8.32797 44.1559 8.53568H45.1271L44.9195 8.39721L44.9096 8.38979Z" fill="#F75E3C"/>
<path d="M35.4844 21.082C36.1071 21.4975 36.8707 21.7744 37.4935 22.3307C37.9086 22.7462 38.1162 23.164 38.1162 23.7871C37.4243 23.0948 36.5915 22.8154 35.8995 22.2615C35.5536 21.9846 35.5536 21.5692 35.4844 21.1513V21.082Z" fill="#FDFDFD"/>
<path d="M35.6227 17.4052C36.2455 17.7513 37.0091 18.2385 37.4935 18.7923C37.9086 19.2078 38.047 19.5564 38.047 20.1795C37.3551 19.4155 36.3839 19.0693 35.6895 18.3077V17.4052H35.6203H35.6227Z" fill="#FDFDFD"/>
<path d="M35.5536 28.4333C36.1763 28.7103 36.8015 29.0564 37.3551 29.4743C37.8394 29.8897 38.047 30.3076 38.1162 30.9307C37.3551 30.3076 36.3839 29.8897 35.6203 29.2666V28.5025L35.5511 28.4333H35.5536Z" fill="#FDFDFD"/>
<path d="M35.5536 24.7564C35.8303 24.8949 36.1763 25.0334 36.4556 25.2411C36.7323 25.3796 37.0091 25.5873 37.2884 25.795C37.8419 26.2104 37.9803 26.6283 38.0495 27.2514C37.8419 27.1129 37.7035 26.9744 37.4959 26.836C36.8732 26.4206 36.1096 26.1436 35.6252 25.6565V24.8232L35.556 24.754L35.5536 24.7564Z" fill="#FDFDFD"/>
<path d="M35.5536 32.0385C36.1763 32.3847 36.8707 32.6616 37.4243 33.1487C37.8394 33.4949 37.9778 33.982 38.047 34.4666C37.7011 34.2589 37.4243 34.0512 37.0758 33.8435C36.5915 33.5666 36.0354 33.2897 35.5511 32.941V32.1077V32.0385H35.5536Z" fill="#FDFDFD"/>
<path d="M36.9399 13.7308C37.2859 13.9385 37.9111 14.841 38.1187 15.1872C38.2571 15.3949 38.3955 15.6718 38.4647 15.8795C38.4647 16.0872 38.4647 16.3642 38.3263 16.5026C37.7727 15.8103 37.1475 15.2539 36.5939 14.5616C36.6631 14.2847 36.8015 14.0077 36.9399 13.7283V13.7308Z" fill="#FDFDFD"/>
<path d="M43.1773 9.15385H43.2465C43.2465 9.56926 42.8313 10.9564 42.6237 11.3718C42.4162 11.5103 42.2086 11.5795 42.001 11.718C41.8626 11.5103 42.347 9.63849 42.347 9.22061C42.6237 9.22061 42.9005 9.22061 43.1798 9.08214V9.15138L43.1773 9.15385Z" fill="#FDFDFD"/>
<path d="M39.4358 10.818C39.6434 11.0257 40.197 12.6898 40.2686 13.036C40.1303 13.1744 39.9919 13.3821 39.8535 13.5206H39.7843C39.2999 12.8975 39.0231 12.0642 38.8131 11.3718C39.0207 11.1641 39.2975 11.0257 39.4358 10.818Z" fill="#FDFDFD"/>
<path d="M47.198 8.87691H47.3364C47.2672 9.29232 46.1576 10.6103 45.8116 10.8872C45.6732 10.9564 45.604 11.0257 45.3964 10.9564C45.2581 10.9564 45.1889 10.818 45.0505 10.7487C45.3964 10.0564 45.9525 9.29232 46.5752 8.87691H47.198Z" fill="#FDFDFD"/>
</g>
<defs>
<clipPath id="clip0_93_256">
<rect width="70" height="50" fill="white"/>
</clipPath>
</defs>
</svg>
