<?xml version="1.0" standalone="no"?>
<!DOCTYPE svg PUBLIC "-//W3C//DTD SVG 20010904//EN"
 "http://www.w3.org/TR/2001/REC-SVG-20010904/DTD/svg10.dtd">
<svg version="1.0" xmlns="http://www.w3.org/2000/svg"
 width="1200.000000pt" height="600.000000pt" viewBox="0 0 1200.000000 600.000000"
 preserveAspectRatio="xMidYMid meet">

<g transform="translate(0.000000,600.000000) scale(0.100000,-0.100000)"
fill="#000000" stroke="none">
<path d="M0 5070 c0 -737 3 -930 13 -930 9 0 9 -2 0 -8 -6 -4 41 -6 104 -5
117 2 139 6 113 24 -11 7 -6 8 15 3 17 -4 33 -13 38 -20 9 -16 304 -15 315 2
4 6 21 14 37 18 21 5 26 4 15 -3 -25 -17 -6 -22 94 -25 75 -2 96 0 96 11 0 7
9 13 20 13 11 0 20 -4 20 -10 0 -5 7 -10 15 -10 8 0 15 5 15 10 0 16 47 12 54
-5 7 -19 26 -20 26 -1 0 16 19 25 38 19 6 -3 12 -11 12 -19 0 -10 14 -14 45
-15 25 -1 51 -2 57 -3 7 -1 13 8 13 19 0 16 7 20 34 22 23 1 30 -1 21 -7 -31
-19 8 -25 153 -24 106 0 152 4 155 12 5 16 39 15 44 0 3 -9 64 -12 238 -13
129 0 226 1 217 3 -9 2 -17 8 -17 13 0 13 34 11 47 -2 7 -7 90 -11 243 -12
127 -1 221 1 208 4 -19 4 -17 7 16 13 24 5 41 4 45 -3 4 -5 42 -11 86 -13 71
-3 80 -5 78 -22 -1 -13 2 -15 10 -7 8 8 8 14 -1 23 -17 17 -15 24 9 25 12 1
23 -6 27 -18 6 -14 18 19 42 113 19 73 34 140 34 148 0 13 5 13 36 -2 19 -9
78 -29 130 -44 52 -15 96 -27 96 -28 1 0 -3 -43 -10 -95 -29 -233 15 -358 226
-639 59 -79 88 -126 88 -144 0 -18 21 -53 60 -102 66 -83 92 -94 130 -56 29
29 25 52 -16 107 -59 79 -86 103 -113 103 -28 1 -88 70 -195 228 -105 155
-135 231 -141 360 -4 73 8 208 19 219 2 3 48 -3 101 -12 85 -16 119 -15 103 0
-2 3 -44 12 -93 20 -48 9 -92 18 -97 21 -6 4 -7 26 -3 53 9 59 66 325 71 330
2 2 25 -10 52 -28 43 -30 30 -14 -26 29 l-23 18 22 96 c12 52 25 100 29 106 5
9 26 9 84 -1 42 -7 76 -15 76 -18 0 -4 -5 -24 -10 -46 -6 -28 -6 -42 3 -47 9
-6 9 -8 0 -8 -7 0 -13 -4 -13 -10 0 -17 29 -11 39 8 5 9 21 71 35 137 72 332
64 305 118 359 38 38 51 47 61 37 9 -9 9 -15 -1 -29 -48 -68 -72 -123 -87
-204 -15 -76 -16 -91 -4 -99 11 -7 11 -9 -3 -9 -12 0 -20 -15 -28 -57 -6 -32
-16 -74 -21 -94 -10 -40 -5 -62 23 -98 10 -14 18 -40 18 -63 0 -76 -53 -128
-130 -128 -34 0 -40 -3 -32 -13 8 -10 4 -42 -17 -123 -52 -200 -61 -242 -61
-271 l0 -28 67 1 c41 1 71 -3 75 -10 5 -7 8 -5 8 7 0 9 5 17 10 17 6 0 10 -8
11 -17 0 -11 3 -13 6 -5 2 6 23 13 46 14 l42 1 -45 7 -45 7 58 1 c40 2 63 -3
73 -13 21 -20 37 -19 32 3 -4 15 0 17 23 14 16 -2 26 -8 23 -13 -3 -5 18 -9
46 -9 28 0 72 -5 97 -11 28 -8 47 -8 52 -2 8 13 154 12 163 -1 5 -8 14 -7 28
2 24 15 127 16 132 1 2 -7 17 -7 48 0 25 6 60 11 78 11 17 0 32 4 32 9 0 6 10
4 23 -2 17 -9 110 -12 338 -11 173 1 343 3 379 4 64 3 65 3 20 10 l-45 7 60 1
c34 1 66 -3 72 -9 11 -11 191 -19 195 -8 2 3 20 9 41 13 37 7 38 6 32 -15 -5
-16 -4 -19 5 -14 7 4 119 9 249 11 130 2 244 3 254 4 10 0 15 5 12 10 -4 6 5
10 19 10 14 0 26 -6 26 -12 0 -19 190 -16 200 3 6 10 23 13 67 9 l58 -4 -45
-7 c-37 -5 -31 -6 38 -7 49 -1 82 2 82 8 0 6 12 10 26 10 14 0 23 -4 20 -9 -9
-13 148 -21 156 -7 7 10 12 1 9 -16 -2 -13 17 -9 22 5 4 9 6 9 6 0 1 -8 17
-13 45 -13 26 0 46 5 49 13 4 9 8 8 16 -3 9 -12 11 -11 11 8 0 15 6 22 20 22
11 0 20 -7 20 -15 0 -13 12 -15 68 -14 37 1 85 -1 106 -6 29 -6 37 -5 32 3 -4
7 -1 12 8 12 8 0 17 -6 19 -12 3 -7 6 -3 6 10 1 16 7 22 25 22 13 0 26 -5 28
-11 2 -7 75 -11 215 -12 116 -1 206 1 201 4 -6 4 11 4 38 2 27 -3 55 -10 62
-16 9 -7 16 -7 24 1 7 7 38 12 69 12 37 0 59 4 61 12 4 10 10 10 32 0 31 -14
73 -16 78 -3 2 4 21 11 43 14 22 3 32 3 23 1 -10 -3 -18 -14 -18 -25 0 -18 5
-19 38 -13 20 4 40 11 43 16 4 6 44 7 95 3 49 -3 173 -8 277 -10 161 -4 187
-3 187 10 0 10 10 15 33 15 17 0 41 2 52 4 11 2 14 1 8 -1 -7 -3 -13 -14 -13
-25 0 -17 4 -19 23 -13 12 4 74 9 137 10 76 2 114 7 112 14 -2 13 45 15 50 2
2 -4 21 -11 43 -15 30 -5 36 -4 25 4 -12 9 -10 10 10 4 14 -4 351 -8 749 -8
579 -1 724 1 728 11 7 18 43 16 43 -2 0 -14 10 -14 147 0 23 3 45 0 48 -5 3
-6 33 -10 66 -10 46 0 59 3 59 15 0 9 9 15 25 15 14 0 25 -4 25 -10 0 -5 7
-10 15 -10 8 0 15 -5 15 -10 0 -7 13 -9 33 -6 17 3 73 9 122 13 81 6 86 8 45
14 -44 6 -44 6 17 7 41 1 63 -2 65 -10 6 -18 118 -19 118 -1 0 7 11 13 25 13
14 0 25 -4 25 -9 0 -14 182 -24 191 -10 5 9 30 9 113 0 58 -7 128 -10 156 -6
l50 7 0 934 0 934 -6000 0 -6000 0 0 -930z m3120 64 c0 -11 -6 -14 -22 -8 -48
14 -54 23 -15 24 27 0 37 -4 37 -16z m25 -149 c50 -15 93 -29 96 -31 4 -2 -24
-124 -61 -271 -38 -148 -66 -279 -64 -293 9 -53 -6 -56 -108 -25 -51 15 -105
34 -120 42 -28 13 -38 46 -18 58 6 4 8 10 5 15 -5 9 55 251 79 316 8 22 16 68
18 102 2 49 7 63 21 68 13 4 15 9 8 18 -6 7 -8 22 -4 34 5 20 7 20 32 8 14 -8
67 -26 116 -41z m365 34 c0 -14 -27 -10 -33 5 -4 10 0 12 14 9 10 -3 19 -9 19
-14z m97 -65 c-3 -3 -12 -4 -19 -1 -8 3 -5 6 6 6 11 1 17 -2 13 -5z m6340
-760 c-3 -3 -12 -4 -19 -1 -8 3 -5 6 6 6 11 1 17 -2 13 -5z m-9852 -44 c8 -13
-5 -13 -25 0 -13 8 -13 10 2 10 9 0 20 -4 23 -10z m4160 0 c-11 -5 -38 -8 -60
-8 l-40 1 45 7 c64 10 78 10 55 0z m3275 0 c-8 -5 -33 -9 -55 -8 l-40 1 45 7
c25 4 50 8 55 8 6 1 3 -3 -5 -8z m803 3 c-7 -2 -21 -2 -30 0 -10 3 -4 5 12 5
17 0 24 -2 18 -5z m2380 0 c-7 -2 -19 -2 -25 0 -7 3 -2 5 12 5 14 0 19 -2 13
-5z m-9930 -10 c-13 -2 -33 -2 -45 0 -13 2 -3 4 22 4 25 0 35 -2 23 -4z m2640
0 c-13 -2 -33 -2 -45 0 -13 2 -3 4 22 4 25 0 35 -2 23 -4z m1440 0 c-13 -2
-33 -2 -45 0 -13 2 -3 4 22 4 25 0 35 -2 23 -4z m2480 0 c-13 -2 -33 -2 -45 0
-13 2 -3 4 22 4 25 0 35 -2 23 -4z m2574 1 c-3 -3 -12 -4 -19 -1 -8 3 -5 6 6
6 11 1 17 -2 13 -5z m1906 -1 c-13 -2 -33 -2 -45 0 -13 2 -3 4 22 4 25 0 35
-2 23 -4z m-11460 -10 c-7 -2 -21 -2 -30 0 -10 3 -4 5 12 5 17 0 24 -2 18 -5z"/>
<path d="M3062 4873 c4 -21 33 -25 33 -3 0 8 -8 16 -18 18 -14 3 -18 -1 -15
-15z"/>
<path d="M3038 4573 c7 -3 16 -2 19 1 4 3 -2 6 -13 5 -11 0 -14 -3 -6 -6z"/>
<path d="M3242 4414 c10 -10 20 -16 22 -13 3 3 -5 11 -17 18 -21 13 -21 12 -5
-5z"/>
<path d="M3341 4084 c1 -16 5 -40 9 -54 6 -17 7 -9 3 25 -6 56 -14 74 -12 29z"/>
<path d="M2761 4084 c0 -11 3 -14 6 -6 3 7 2 16 -1 19 -3 4 -6 -2 -5 -13z"/>
<path d="M2742 4058 c7 -15 15 -23 17 -17 2 6 -4 18 -13 27 -15 15 -15 15 -4
-10z"/>
<path d="M2615 3450 c-8 -14 38 -33 171 -69 107 -30 293 -71 320 -71 8 0 14 6
14 14 0 9 -17 16 -49 20 -65 9 -316 71 -388 96 -67 24 -60 22 -68 10z"/>
<path d="M9666 2980 c-88 -14 -193 -45 -269 -79 -233 -105 -448 -329 -526
-551 -9 -25 -20 -47 -26 -49 -5 -2 -21 -12 -34 -22 -13 -11 -39 -19 -57 -19
-56 0 -38 -15 19 -16 44 -1 68 -10 134 -48 l80 -46 131 0 132 0 0 47 c0 34 10
66 38 120 33 64 35 75 24 94 -11 17 -11 27 -2 50 7 16 15 29 18 29 5 0 112
-58 120 -65 2 -2 -4 -17 -12 -34 -20 -38 -20 -40 2 -34 26 6 59 -32 43 -51
-12 -14 0 -30 24 -31 6 0 9 -11 8 -23 -3 -21 6 -26 35 -23 7 1 11 -3 10 -10
-5 -20 53 -30 108 -17 38 9 50 16 47 27 -2 10 6 20 19 27 19 8 34 5 81 -18 58
-29 58 -29 43 -53 -19 -30 -20 -35 -3 -35 8 0 14 6 15 13 3 42 26 155 33 170
6 11 5 25 -2 39 -9 16 -8 22 2 29 19 11 23 3 21 -36 -2 -30 1 -37 23 -45 l26
-10 -21 -30 c-18 -25 -19 -30 -6 -30 9 0 25 9 36 20 18 18 20 18 21 3 1 -10 1
-21 1 -24 -1 -4 8 -5 18 -2 27 7 25 -1 -12 -53 -35 -49 -42 -52 -72 -27 -12
10 6 -11 39 -45 33 -34 53 -62 46 -62 -8 0 -11 -7 -7 -17 4 -11 -2 -8 -14 7
-24 31 -25 24 -4 -20 12 -24 19 -29 25 -19 8 13 4 -34 -7 -71 -2 -8 5 -4 16
10 11 14 20 22 20 18 0 -14 -26 -63 -42 -80 -10 -10 -18 -24 -18 -30 1 -16 50
43 50 59 0 21 17 23 60 8 23 -8 48 -15 54 -15 16 1 -43 50 -60 50 -8 0 -14 5
-14 10 0 13 17 13 25 -1 4 -6 13 -8 21 -5 7 3 16 1 19 -4 4 -6 12 -10 18 -10
7 0 -4 15 -23 32 -19 17 -61 55 -94 84 l-59 53 46 61 45 61 30 -38 c61 -78
107 -208 83 -236 -14 -17 3 -41 24 -34 11 5 14 13 10 27 -5 16 -2 20 14 20 19
0 26 -11 22 -33 -1 -5 3 -5 9 -2 6 4 11 1 9 -6 -6 -46 2 -77 21 -82 11 -3 23
-12 26 -21 9 -24 -15 -48 -42 -42 -14 4 -24 1 -28 -9 -3 -9 0 -15 8 -15 63 0
-36 -145 -152 -224 -63 -43 -162 -86 -197 -86 -8 0 -24 6 -35 12 -17 11 -22 9
-35 -10 -21 -28 -50 -28 -70 1 -13 19 -13 22 -1 25 9 2 13 12 10 27 -3 18 2
28 22 38 l27 14 -32 6 c-31 6 -31 7 -31 71 0 58 2 64 23 69 12 4 31 13 42 21
18 14 14 15 -57 16 -69 0 -78 -2 -78 -18 0 -21 -24 -35 -89 -53 l-43 -13 -40
42 c-41 44 -67 54 -64 25 0 -10 -6 -18 -14 -18 -8 0 -14 8 -14 18 1 12 -6 17
-27 17 l-30 0 40 -59 c66 -97 161 -161 284 -192 49 -12 58 -31 17 -37 -31 -5
-134 34 -195 73 -58 37 -157 140 -176 184 l-14 31 -252 0 -252 0 15 -52 c26
-89 98 -229 161 -313 124 -166 271 -272 488 -351 84 -31 87 -33 49 -34 -54 0
-184 -34 -250 -64 -59 -27 -86 -62 -57 -73 10 -4 24 -13 31 -20 10 -10 7 -14
-19 -21 -18 -4 -35 -14 -37 -22 -3 -9 1 -11 12 -7 9 4 16 3 16 -1 0 -4 33 -8
73 -10 39 -2 108 -7 152 -12 115 -13 486 -24 530 -16 62 12 27 26 -86 37 -124
11 -137 15 -120 32 9 9 104 12 374 13 409 2 397 1 416 13 23 14 -17 58 -69 76
-67 22 -274 63 -362 70 -43 4 -75 11 -73 15 3 5 29 16 58 26 242 79 461 269
576 500 287 578 -24 1259 -649 1420 -107 28 -295 39 -394 24z m-76 -370 c18
-12 2 -12 -25 0 -13 6 -15 9 -5 9 8 0 22 -4 30 -9z m266 -96 c85 -3 204 -46
204 -73 0 -5 -8 -18 -17 -30 -17 -21 -19 -21 -63 -6 -24 8 -51 15 -60 14 -8
-1 -27 3 -42 9 -20 8 -36 8 -58 1 -46 -17 -60 -6 -60 45 0 43 13 60 35 47 6
-3 33 -6 61 -7z m-181 -19 l30 -13 -40 5 c-22 3 -44 10 -49 14 -15 14 25 10
59 -6z m459 -81 c20 -19 20 -23 -3 -53 -18 -24 -20 -24 -45 -8 -31 21 -32 27
-6 55 25 26 33 27 54 6z m-167 -40 c9 -23 -11 -38 -26 -20 -13 16 -7 36 10 36
5 0 12 -7 16 -16z m253 -46 c53 -56 109 -182 121 -274 14 -100 4 -157 -29
-162 -20 -3 -22 1 -22 51 0 123 -53 268 -124 336 -33 32 -34 35 -19 57 21 32
36 30 73 -8z m-154 1 c10 -17 -13 -36 -27 -22 -12 12 -4 33 11 33 5 0 12 -5
16 -11z m80 -70 c10 -17 -13 -36 -27 -22 -12 12 -4 33 11 33 5 0 12 -5 16 -11z
m30 -40 c10 -17 -13 -36 -27 -22 -12 12 -4 33 11 33 5 0 12 -5 16 -11z m29
-48 c7 -12 -12 -24 -25 -16 -11 7 -4 25 10 25 5 0 11 -4 15 -9z m18 -62 c-17
-17 -37 -1 -22 17 8 10 15 12 23 4 7 -7 7 -13 -1 -21z m27 -39 c0 -5 -5 -12
-11 -16 -14 -8 -33 11 -25 25 7 11 36 4 36 -9z m4 -70 c-14 -14 -39 14 -29 31
5 8 12 6 23 -5 11 -11 13 -19 6 -26z m-758 -301 c10 -17 -13 -36 -27 -22 -12
12 -4 33 11 33 5 0 12 -5 16 -11z m254 -58 c0 -28 -3 -52 -8 -54 -11 -7 -83
19 -101 37 -19 19 -6 35 42 53 60 22 67 18 67 -36z m-220 9 c0 -11 -4 -20 -9
-20 -13 0 -32 26 -24 33 13 14 33 6 33 -13z m40 -36 c0 -8 -7 -14 -15 -14 -15
0 -21 21 -9 33 10 9 24 -2 24 -19z m46 -15 c10 -17 -13 -36 -27 -22 -12 12 -4
33 11 33 5 0 12 -5 16 -11z m47 -26 c9 -9 -13 -34 -24 -27 -14 8 -11 34 4 34
8 0 17 -3 20 -7z m51 -34 c-8 -14 -34 -11 -34 4 0 8 3 17 7 20 9 9 34 -13 27
-24z m38 -4 c0 -5 -5 -11 -11 -13 -6 -2 -11 4 -11 13 0 9 5 15 11 13 6 -2 11
-8 11 -13z"/>
<path d="M2386 2969 c-32 -5 -82 -15 -110 -23 -28 -7 -86 -23 -128 -34 -91
-25 -119 -38 -215 -104 -295 -203 -464 -596 -409 -954 34 -225 127 -414 281
-569 107 -108 219 -178 384 -240 93 -36 91 -39 -24 -50 -71 -7 -273 -47 -331
-66 -29 -9 -31 -13 -30 -54 0 -25 4 -45 9 -45 4 0 7 -6 7 -14 0 -40 152 -52
615 -50 334 1 366 3 440 23 44 12 89 23 99 26 38 9 92 28 134 47 36 16 41 22
32 33 -20 25 -253 95 -337 102 l-78 6 95 32 c167 56 277 122 399 239 177 171
279 386 301 638 26 299 -82 575 -310 791 -77 72 -194 157 -204 146 -2 -2 -34
-101 -71 -219 -37 -118 -95 -305 -130 -415 -35 -110 -71 -227 -80 -260 -31
-106 -82 -162 -162 -180 -32 -6 -33 -5 -33 24 0 18 7 35 18 41 13 9 7 10 -29
7 -26 -2 -53 0 -61 4 -12 7 -17 2 -22 -21 -7 -40 -27 -38 -66 6 -37 43 -50 73
-50 120 0 33 56 354 79 455 6 24 11 50 11 57 0 22 -42 13 -126 -28 -61 -30
-100 -57 -150 -107 -64 -65 -66 -66 -39 -24 15 24 28 49 29 55 4 23 47 96 69
117 21 21 20 21 -23 -2 -25 -13 -79 -58 -121 -99 -122 -120 -179 -257 -179
-429 0 -223 136 -445 335 -548 101 -52 167 -71 286 -83 l94 -9 -97 4 c-166 7
-304 65 -424 178 -365 341 -229 952 248 1111 86 29 104 31 111 14 9 -26 17 3
47 163 17 90 33 172 36 182 6 20 -18 21 -120 6z m620 -543 c274 -299 219 -778
-115 -1001 -82 -54 -179 -92 -252 -99 -49 -5 -48 -4 16 9 39 8 106 32 150 54
219 109 347 299 362 536 10 177 -47 321 -183 463 -46 48 -84 88 -84 89 0 1 3
8 6 17 9 23 32 7 100 -68z m-621 13 c9 -14 -46 -279 -57 -279 -18 0 -66 30
-72 45 -3 8 -9 15 -13 14 -20 -3 -33 2 -30 13 1 7 -5 13 -13 14 -30 2 -32 4
-21 18 9 11 6 15 -13 18 -14 3 -31 0 -38 -6 -7 -6 12 15 42 47 35 37 80 70
124 92 75 38 82 40 91 24z m525 -60 c7 -11 20 -45 30 -75 l18 -55 -33 -24
c-35 -28 -55 -31 -73 -13 -21 21 -13 55 18 81 35 30 36 34 14 58 -17 18 -13
49 5 49 6 0 15 -9 21 -21z m-790 -189 c26 -26 26 -66 1 -80 -29 -15 -46 -4
-45 30 3 63 4 70 14 70 6 0 19 -9 30 -20z m59 -14 c-3 -3 -11 5 -18 17 -13 21
-12 21 5 5 10 -10 16 -20 13 -22z m694 -7 c30 -8 29 -8 -10 -5 -38 3 -43 1
-43 -17 0 -13 -4 -17 -9 -11 -5 5 -7 21 -4 37 4 22 8 25 19 16 8 -6 29 -15 47
-20z m-543 -29 c0 -5 -2 -10 -4 -10 -3 0 -8 5 -11 10 -3 6 -1 10 4 10 6 0 11
-4 11 -10z m600 -300 c-20 -13 -33 -13 -25 0 3 6 14 10 23 10 15 0 15 -2 2
-10z m-735 -100 c8 -13 -5 -13 -25 0 -13 8 -13 10 2 10 9 0 20 -4 23 -10z
m110 -235 c48 -21 125 -41 190 -49 20 -2 14 -4 -16 -5 -87 -2 -237 59 -295
121 -26 28 -24 27 21 -7 28 -21 73 -48 100 -60z m282 69 c-3 -3 -12 -4 -19 -1
-8 3 -5 6 6 6 11 1 17 -2 13 -5z m233 -29 c0 -2 -10 -9 -22 -15 -22 -11 -22
-10 -4 4 21 17 26 19 26 11z m-55 -34 c-17 -16 -115 -51 -115 -41 0 6 8 10 18
11 9 0 35 9 57 19 47 22 52 23 40 11z"/>
<path d="M10805 2730 c-3 -5 25 -63 63 -129 60 -106 71 -119 85 -108 15 11 10
24 -50 130 -62 109 -83 132 -98 107z"/>
<path d="M2646 2562 c-6 -10 -156 -607 -156 -621 0 -16 33 -22 45 -9 15 15
163 608 157 626 -4 14 -38 16 -46 4z m24 -50 c0 -4 -6 -14 -12 -21 -11 -11
-10 -12 2 -6 13 8 13 6 2 -8 -8 -9 -12 -20 -9 -24 7 -12 -12 -55 -22 -49 -8 5
0 64 14 104 5 13 25 17 25 4z m-37 -147 c-3 -8 -9 -15 -14 -15 -10 0 -12 24
-3 33 11 11 24 -3 17 -18z m-6 -31 c-3 -3 -12 -4 -19 -1 -8 3 -5 6 6 6 11 1
17 -2 13 -5z m-14 -46 c-12 -61 -18 -78 -28 -75 -12 2 -7 31 6 35 5 2 7 8 4
12 -8 12 5 60 16 60 5 0 6 -15 2 -32z m-38 -145 c-4 -21 -11 -43 -16 -49 -5
-6 -6 -14 -2 -17 3 -4 1 -7 -5 -7 -13 0 -16 13 -5 24 8 8 9 12 11 59 1 15 7
27 13 27 8 0 9 -12 4 -37z m-28 -108 c0 -8 -4 -15 -9 -15 -10 0 -11 14 -1 23
9 10 10 9 10 -8z m-15 -47 c-7 -7 -12 -8 -12 -2 0 6 3 14 7 17 3 4 9 5 12 2 2
-3 -1 -11 -7 -17z"/>
<path d="M4010 2320 c-61 -7 -53 -23 15 -34 63 -10 78 -3 49 22 -14 14 -30 17
-64 12z"/>
<path d="M3892 2301 c-11 -7 -11 -9 2 -14 10 -4 16 -1 16 8 0 17 -1 17 -18 6z"/>
<path d="M8224 2299 c-3 -5 0 -17 6 -26 9 -16 10 -15 5 5 -6 20 -4 21 19 12
14 -5 26 -6 26 -1 0 12 -49 20 -56 10z"/>
<path d="M4792 2293 c70 -2 187 -2 260 0 73 1 16 3 -127 3 -143 0 -203 -2
-133 -3z"/>
<path d="M5220 2294 c32 -6 334 -10 310 -3 -14 4 -92 7 -175 7 -82 0 -143 -2
-135 -4z"/>
<path d="M3807 2283 c-10 -10 -8 -23 4 -23 5 0 8 4 4 9 -3 5 3 12 12 14 14 4
15 5 2 6 -9 0 -19 -2 -22 -6z"/>
<path d="M5173 2273 c9 -2 23 -2 30 0 6 3 -1 5 -18 5 -16 0 -22 -2 -12 -5z"/>
<path d="M8418 2253 c7 -3 16 -2 19 1 4 3 -2 6 -13 5 -11 0 -14 -3 -6 -6z"/>
<path d="M8538 2253 c6 -2 18 -2 25 0 6 3 1 5 -13 5 -14 0 -19 -2 -12 -5z"/>
<path d="M8608 2253 c7 -3 16 -2 19 1 4 3 -2 6 -13 5 -11 0 -14 -3 -6 -6z"/>
<path d="M8658 2253 c6 -2 18 -2 25 0 6 3 1 5 -13 5 -14 0 -19 -2 -12 -5z"/>
<path d="M6988 2243 c7 -3 16 -2 19 1 4 3 -2 6 -13 5 -11 0 -14 -3 -6 -6z"/>
<path d="M7458 2243 c7 -3 16 -2 19 1 4 3 -2 6 -13 5 -11 0 -14 -3 -6 -6z"/>
<path d="M8048 2243 c7 -3 16 -2 19 1 4 3 -2 6 -13 5 -11 0 -14 -3 -6 -6z"/>
<path d="M4089 2000 c67 -84 136 -173 154 -197 17 -25 33 -40 35 -35 2 6 -45
70 -103 144 -107 133 -145 192 -132 205 4 4 110 6 235 6 126 -1 235 3 243 8 9
5 -64 9 -192 9 -113 0 -241 3 -284 7 l-77 6 121 -153z"/>
<path d="M9900 2136 c0 -2 9 -6 20 -9 11 -3 20 -1 20 4 0 5 -9 9 -20 9 -11 0
-20 -2 -20 -4z"/>
<path d="M4406 2059 c-42 -33 -35 -66 34 -153 53 -67 64 -76 94 -76 35 0 59
19 71 58 5 19 -5 38 -50 98 -77 101 -100 112 -149 73z"/>
<path d="M9174 1955 c-4 -8 -4 -22 0 -30 5 -13 48 -15 333 -13 l328 3 0 25 0
25 -328 3 c-285 2 -328 0 -333 -13z"/>
<path d="M10220 1905 c0 -8 7 -15 15 -15 8 0 15 4 15 9 0 5 -7 11 -15 15 -9 3
-15 0 -15 -9z"/>
<path d="M10025 1863 c-8 -21 -7 -23 13 -23 10 0 40 -7 66 -16 31 -11 51 -13
57 -7 7 7 -15 19 -60 35 -58 21 -71 22 -76 11z"/>
<path d="M9163 1833 c8 -7 669 -5 676 3 2 2 -150 4 -339 4 -189 0 -340 -3
-337 -7z"/>
<path d="M10200 1805 c0 -9 5 -15 11 -13 6 2 11 8 11 13 0 5 -5 11 -11 13 -6
2 -11 -4 -11 -13z"/>
<path d="M8688 1743 c7 -3 16 -2 19 1 4 3 -2 6 -13 5 -11 0 -14 -3 -6 -6z"/>
<path d="M9850 1655 c0 -43 4 -75 10 -75 6 0 10 32 10 75 0 43 -4 75 -10 75
-6 0 -10 -32 -10 -75z"/>
<path d="M7640 1619 c0 -5 5 -7 10 -4 6 3 10 8 10 11 0 2 -4 4 -10 4 -5 0 -10
-5 -10 -11z"/>
<path d="M7750 1610 c0 -5 5 -10 11 -10 5 0 7 5 4 10 -3 6 -8 10 -11 10 -2 0
-4 -4 -4 -10z"/>
<path d="M7614 974 c64 -63 95 -65 59 -4 -12 21 -25 29 -54 32 l-37 3 32 -31z"/>
<path d="M7770 809 c0 -5 9 -9 20 -9 11 0 20 2 20 4 0 2 -9 6 -20 9 -11 3 -20
1 -20 -4z"/>
</g>
</svg>
